<svg xmlns="http://www.w3.org/2000/svg" viewBox="0 0 217.61 148"><defs><style>.cls-1{fill:#442d15;}</style></defs><g id="Capa_2" data-name="Capa 2"><g id="Capa_1-2" data-name="Capa 1"><path class="cls-1" d="M216.75,19.28a2.69,2.69,0,0,0-3.11-.57c-2.35,1-4.68,2.06-7,3.11a2.58,2.58,0,0,1-1.58.22,2.53,2.53,0,0,0-2.89,1.67,1.91,1.91,0,0,1-.94,1.12c-5.45,3.34-10.67,7-16,10.63-2.4,1.63-4.79,3.3-7.17,5-.48.34-.78.46-1.06-.24a5,5,0,0,0-1.58-1.77c-2.15-1.84-4.86-2.54-7.43-3.45-6.27-2.21-12.62-4.19-18.91-6.36-7-2.41-13.92-4.92-20.88-7.38-1-.37-1.06-.43-.23-1.18,2.45-2.2,4.88-4.43,7.36-6.59,1.46-1.28,2.77-2.75,4.59-3.59a1.44,1.44,0,0,1,1.34-.08,1.82,1.82,0,0,0,2.67-1,2.89,2.89,0,0,1,1.59-1.54c1.78-.88,3.53-1.81,5.3-2.7a1.55,1.55,0,0,0,.82-1,2.69,2.69,0,0,0-.72-3,2.45,2.45,0,0,0-2.72-.19q-2.67,1.19-5.33,2.41a3,3,0,0,1-1.84.3A1.89,1.89,0,0,0,139,4.49,2,2,0,0,1,137.72,6,23.94,23.94,0,0,0,133,9.34c-3.45,3.14-6.91,6.27-10.34,9.44a2.21,2.21,0,0,1-2.08.57,58.88,58.88,0,0,0-8.23-.9c-.62,0-1.39,0-2.15.14-3.42.45-6.83,1-10.26,1.39q-12,1.43-24.08,2.75c-8.83,1-17.66,1.91-26.49,2.86-4.95.53-9.91,1.05-14.86,1.62-5.58.64-11.18,1.14-16.78,1.63a28.1,28.1,0,0,0-7.33,1.32,7.76,7.76,0,0,0-3.2,2.05A3.14,3.14,0,0,0,7.85,37a54.58,54.58,0,0,0,6.08,3.25c2.66,1.4,5.28,2.88,7.92,4.31,1.09.6,2.19,1.18,3.3,1.76L28,48.09c.31.21.74.31.37.84-.1.15,0,.44,0,.66.45,5.06.88,10.12,1.34,15.17Q30.8,76.7,31.94,88.62a1.08,1.08,0,0,1-.52,1.11,50,50,0,0,0-4.15,3.4,49.29,49.29,0,0,0-7.49,8.94,59.75,59.75,0,0,0-4,7.83,1.93,1.93,0,0,1-.94,1q-2.43,1.13-4.85,2.3a24.53,24.53,0,0,0-6.53,4,10.47,10.47,0,0,0,.69,16.06,21.29,21.29,0,0,0,9.26,4.18,5,5,0,0,1,3.57,2.46c1.28,2,2.52,4,4.62,5.3a15.45,15.45,0,0,0,5.88,2.12,36.11,36.11,0,0,0,7.23.67,28.87,28.87,0,0,0,13.77-4.6,43.48,43.48,0,0,0,12-10.92A48,48,0,0,0,69,115.58a2.09,2.09,0,0,1,.67-1.13c3.24-2.8,6.49-5.59,9.72-8.41.53-.46.85-.45,1.43,0,1.91,1.52,3.22,1.7,4.9.69,1.2-.72,2.4-1.45,3.55-2.26a4.83,4.83,0,0,0,2.13-3.69c.06-.73.18-1.46.2-2.19a1.23,1.23,0,0,1,1-1.29c1.41-.42,2.8-.89,4.2-1.34s1.44-.46,2.19.82c5.74,9.79,11.52,19.55,17.45,29.23,1,1.67,2.71,2.21,4.36,2.86a1.24,1.24,0,0,0,.85,0c1.89-.6,3.8-1.16,5.66-1.82a4.5,4.5,0,0,0,3.26-4c.16-1.56.37-3.11.52-4.66.41-4,.8-8.08,1.2-12.11a1.15,1.15,0,0,1,.58-1,2.2,2.2,0,0,0,.9-3.27,5,5,0,0,1-.87-2.68c.41-4.67.86-9.35,1.25-14a1.4,1.4,0,0,1,1.12-1.43c2.75-.85,5.46-1.81,8.22-2.63a22.4,22.4,0,0,0,10.75-6.36c1.42-1.6,2.7-3.31,4.05-5C162.87,64.25,167.48,58.64,172,53a31.48,31.48,0,0,1,7.64-7.33c2.16-1.37,4.25-2.85,6.37-4.28,5.75-3.88,11.34-8,17.29-11.58a1.29,1.29,0,0,1,1.4-.11,2.84,2.84,0,0,0,3.64-1.43,2.23,2.23,0,0,1,1.21-1.13c2-.89,4-1.79,5.92-2.73a3.48,3.48,0,0,0,2-2A2.78,2.78,0,0,0,216.75,19.28ZM13,119.88a27.64,27.64,0,0,0-.18,9.34c.12.77-.07.94-.78.64-1.79-.76-3.63-1.42-4.95-3a3.64,3.64,0,0,1,.21-4.95c1.5-1.5,3.49-2.2,5.3-3.21.32-.17.5,0,.49.31A6.13,6.13,0,0,1,13,119.88ZM59.65,77.25c.13,1.78.27,3.57.41,5.35l.18,2.19c.06.59-.08.88-.73.53a24.57,24.57,0,0,0-6.76-2c-1-.2-2-.09-3.06-.24A16.18,16.18,0,0,1,55,78.39c1.22-.62,2.51-1.11,3.74-1.72C59.43,76.3,59.6,76.62,59.65,77.25ZM33,52.75c.84.7,1.69,1.39,2.52,2.12,5.7,4.93,11.29,10,17.23,14.64a27.43,27.43,0,0,0,2.64,1.75c.63.39.59.63-.08.91a24.46,24.46,0,0,0-6.79,4.08,50.5,50.5,0,0,0-5.94,6.38A9.78,9.78,0,0,1,38,85.75c-2,.69-2,.77-2.19-1.38-.67-7-1.32-13.92-2-20.88-.32-3.37-.66-6.74-1-10.11C32.82,53.2,32.72,53,33,52.75ZM76.77,100l-5.6,4.79c-.14.13-.3.32-.49.24-.34-.14-.2-.49-.22-.76-.4-4.41-1.35-8.67-3.93-12.36a7.7,7.7,0,0,1-1.24-4.19c-.19-3-.44-6-.66-9.07-.06-.43.09-.62.53-.41l3.18,1.56a1.69,1.69,0,0,1,.66.91q4,9.07,8,18.13A.85.85,0,0,1,76.77,100Zm4.12-3.46c-.55.44-.69-.09-.85-.47C79,93.65,78,91.28,77,88.9L74.83,84c-.07-.18-.29-.36-.07-.67l6.7,3.7L87.4,90.3a1.37,1.37,0,0,1,.08,2.32A31.82,31.82,0,0,0,80.89,96.49Zm47.31,2.86q-.52,5.63-1.06,11.25c-.28,2.89-.61,5.78-.85,8.67a4.57,4.57,0,0,1-3.46,4.51,16.45,16.45,0,0,0-2.31.94c-.54.26-.84.17-1.16-.36q-4-6.83-8-13.63Q107,103.34,102.61,96c-.88-1.49-.88-1.46.74-2,6.45-2.08,12.89-4.15,19.33-6.27.8-.27,1.12-.1,1.42.65,1.25,3.11,2.55,6.2,3.84,9.3A3.26,3.26,0,0,1,128.2,99.35Zm40.09-50.3-17.6,21.62a16.66,16.66,0,0,1-4.9,3.93c-1.28-.41-2.43.89-3.73.25-.67-.32-.72-.59-.08-1,1.89-1.3,3.78-2.61,5.59-4a84.16,84.16,0,0,0,11.3-10.87c3.83-4.33,7.73-8.6,11.37-13.09a1.26,1.26,0,0,1,1.12-.58C170.25,46.63,169.27,47.85,168.29,49.05Z"/></g></g></svg>