<?xml version="1.0" encoding="utf-8"?>
<!-- Generator: Adobe Illustrator 25.2.1, SVG Export Plug-In . SVG Version: 6.00 Build 0)  -->
<svg version="1.1" id="Capa_1" xmlns="http://www.w3.org/2000/svg" xmlns:xlink="http://www.w3.org/1999/xlink" x="0px" y="0px"
	 viewBox="0 0 126.3155823 23.7000008" style="enable-background:new 0 0 126.3155823 23.7000008;" xml:space="preserve">
<style type="text/css">
	.st0{fill:#442D15;}
</style>
<g>
	<path class="st0" d="M12.9535007,5.1485844L8.2083836,18.392725H4.9310398L0.1004736,5.1485844h3.1796875l2.066406,5.9921875
		c0.5380859,1.5654297,0.9702148,3.0654297,1.2963867,4.5c0.269043-1.1894531,0.7094727-2.7021484,1.3208008-4.5366211
		l1.980957-5.9555664H12.9535007z"/>
	<path class="st0" d="M16.4583836,0.1344242v2.7758789H13.535532V0.1344242H16.4583836z M16.4583836,5.1485844V18.392725H13.535532
		V5.1485844H16.4583836z"/>
	<path class="st0" d="M30.4193211,5.1363773v11.715332c0,1.0849609-0.0634766,1.9404297-0.1899414,2.5683594
		s-0.3525391,1.1982422-0.6787109,1.7119141c-1.0107422,1.6220703-2.8452148,2.4335938-5.5029297,2.4335938
		c-3.6118164,0-5.5888672-1.3447266-5.9311523-4.0351562h2.9350586c0.269043,1.3125,1.2963867,1.96875,3.081543,1.96875
		c1.2963867,0,2.2094727-0.3466797,2.7392578-1.0400391c0.4731445-0.6035156,0.7133789-1.5566406,0.7216797-2.8613281
		l0.0244141-1.5527344c-0.9458008,1.4833984-2.3520508,2.2255859-4.2192383,2.2255859
		c-1.875,0-3.3344727-0.6767578-4.3779297-2.0302734c-0.9130859-1.1816406-1.3696289-2.7109375-1.3696289-4.5859375
		c0-2.2094727,0.6113281-3.9458008,1.8344727-5.2094727c1.0678711-1.1010742,2.4291992-1.6513672,4.0844727-1.6513672
		c0.9296875,0,1.722168,0.1757812,2.378418,0.5258789c0.65625,0.3505859,1.2333984,0.9091797,1.7304688,1.6757812V5.1363773
		H30.4193211z M24.0965672,7.1295414c-1.1577148,0-2.050293,0.4443359-2.6782227,1.3330078
		c-0.5380859,0.7749023-0.8071289,1.7978516-0.8071289,3.0693359c0,1.4594727,0.3505859,2.5844727,1.0517578,3.3754883
		c0.6113281,0.6845703,1.418457,1.0273438,2.4213867,1.0273438c1.1494141,0,2.0463867-0.4570312,2.6904297-1.3701172
		c0.5541992-0.7900391,0.831543-1.8173828,0.831543-3.081543c0-1.4511719-0.3544922-2.5639648-1.0639648-3.3383789
		C25.9310398,7.4679203,25.1156101,7.1295414,24.0965672,7.1295414z"/>
	<path class="st0" d="M31.8939304,9.2696781c0.2690449-2.9838867,2.2016621-4.4760742,5.7968769-4.4760742
		c1.2226562,0,2.2744141,0.1713867,3.1552734,0.5136719c0.7744141,0.293457,1.3530273,0.6933594,1.7363281,1.1987305
		c0.4077148,0.5463867,0.6113281,1.3779297,0.6113281,2.4946289l-0.0854492,4.0356445l-0.0244141,1.5527344
		c0,0.8730469,0.0366211,1.4052734,0.1098633,1.5966797c0.0737305,0.1914062,0.2856445,0.2871094,0.6362305,0.2871094
		c0.1464844,0,0.3583984-0.0126953,0.6357422-0.0371094v2.0429688c-0.7666016,0.1953125-1.394043,0.2929688-1.8833008,0.2929688
		c-1.2553711,0-1.9731445-0.5292969-2.1523438-1.5898438c-1.2148438,1.0605469-2.7719727,1.5898438-4.6713867,1.5898438
		c-1.4433594,0-2.5683594-0.4033203-3.3754883-1.2109375c-0.7011738-0.7001953-1.0517597-1.609375-1.0517597-2.7265625
		c0-1.2636719,0.4443359-2.2338867,1.3330097-2.9106445c0.480957-0.3666992,0.9702148-0.6196289,1.4677734-0.7583008
		c0.4970703-0.1386719,1.5327148-0.3012695,3.105957-0.4892578c1.4267578-0.1791992,2.296875-0.3564453,2.6108398-0.5317383
		s0.4711914-0.5688477,0.4711914-1.1801758c0-1.3452148-0.9135742-2.0180664-2.7397461-2.0180664
		c-0.9375,0-1.6303711,0.1777344-2.0786133,0.5322266c-0.4487305,0.3544922-0.7299805,0.9521484-0.84375,1.7915039H31.8939304z
		 M40.2835808,11.7887211c-0.3754883,0.2041016-0.7094727,0.3383789-1.0029297,0.4038086s-0.9868164,0.1713867-2.0791016,0.3178711
		c-1.1982422,0.1630859-1.9853516,0.4282227-2.3603516,0.7954102c-0.3588867,0.3583984-0.5380859,0.8271484-0.5380859,1.40625
		c0,0.6191406,0.2099609,1.1025391,0.6298828,1.4492188s1.0131836,0.5195312,1.7792969,0.5195312
		c0.7011719,0,1.3554688-0.1289062,1.9628906-0.3857422s1.0415039-0.5927734,1.3022461-1.0087891
		c0.1225586-0.203125,0.2041016-0.4277344,0.2446289-0.6728516c0.0410156-0.2441406,0.0615234-0.6679688,0.0615234-1.2714844
		V11.7887211z"/>
	<path class="st0" d="M55.7240105,9.0128422h-2.8007812c-0.0976562-0.7255859-0.3730469-1.253418-0.8251953-1.5834961
		c-0.4526367-0.3305664-1.1235352-0.4956055-2.0117188-0.4956055c-0.7993164,0-1.4106445,0.1552734-1.8344727,0.4648438
		c-0.3666992,0.269043-0.550293,0.6318359-0.550293,1.0883789c0,0.5219727,0.2363281,0.9008789,0.7094727,1.137207
		c0.4238281,0.2124023,1.3125,0.4648438,2.6655273,0.7583008c1.7856445,0.375,3.0576172,0.831543,3.815918,1.3696289
		c0.8720703,0.6118164,1.3085938,1.5048828,1.3085938,2.6787109c0,1.4179688-0.5874023,2.5185547-1.7612305,3.3017578
		c-1.019043,0.6845703-2.3564453,1.0273438-4.0112305,1.0273438c-3.7910156,0-5.7719727-1.5332031-5.9433594-4.5986328h2.800293
		c0.1875,1.6308594,1.2475586,2.4462891,3.1796875,2.4462891c0.9213867,0,1.6425781-0.1962891,2.1645508-0.5869141
		c0.456543-0.3427734,0.6850586-0.7832031,0.6850586-1.3212891c0-0.5292969-0.2407227-0.9296875-0.7216797-1.1982422
		c-0.4238281-0.2363281-1.230957-0.4931641-2.4213867-0.7705078c-1.2963867-0.3017578-2.1567383-0.5175781-2.5805664-0.6479492
		s-0.831543-0.3061523-1.2226562-0.5258789c-0.4975586-0.2773438-0.8847656-0.6645508-1.1616211-1.1621094
		c-0.2773438-0.4970703-0.4160156-1.0473633-0.4160156-1.6508789c0-1.3208008,0.5419922-2.3359375,1.6264648-3.0449219
		c0.9458008-0.6118164,2.2055664-0.9174805,3.7788086-0.9174805c2.1113281,0,3.6445312,0.5463867,4.5981445,1.6386719
		C55.3162956,7.0318851,55.6258659,7.896143,55.7240105,9.0128422z"/>
	<path class="st0" d="M61.0511589,14.9444828v3.4482422h-3.5585938v-3.4482422H61.0511589z"/>
	<path class="st0" d="M79.9354324,5.1485844L75.7782059,18.392725h-2.9960938l-1.7373047-6.5058594
		c-0.2441406-0.9375-0.5048828-2.1362305-0.7822266-3.5957031c-0.3261719,1.5820312-0.5908203,2.7724609-0.7949219,3.5712891
		l-1.6630859,6.5302734h-3.0205078L60.6009636,5.1485844h3.1181641l1.5415001,5.5888672
		c0.3339844,1.2226562,0.7138672,2.7753906,1.1376953,4.6591797c0.4072266-2.0302734,0.7539062-3.6240234,1.0390625-4.7817383
		l1.3701172-5.4663086h2.9345703l1.6513672,6.2490234c0.2197266,0.855957,0.5048828,2.1601562,0.8554688,3.9130859
		c0.375-1.7773438,0.6767578-3.0693359,0.9052734-3.8764648l1.7978516-6.2856445H79.9354324z"/>
	<path class="st0" d="M86.5838699,4.7936039c2.1845703,0,3.8759766,0.7138672,5.0751953,2.1401367
		c1.0517578,1.2397461,1.5771484,2.8540039,1.5771484,4.8427734c0,2.2988281-0.6767578,4.0771484-2.0302734,5.3320312
		c-1.1816406,1.1005859-2.7265625,1.6513672-4.6347656,1.6513672c-2.1845703,0-3.8886719-0.7177734-5.1113281-2.1523438
		c-1.0605469-1.2392578-1.5898438-2.8496094-1.5898438-4.8310547c0-2.2578125,0.6923828-4.0273438,2.0791016-5.3071289
		C83.1473465,5.3521976,84.6922684,4.7936039,86.5838699,4.7936039z M86.5594559,7.1295414
		c-1.2314453,0-2.1816406,0.46875-2.8496094,1.40625c-0.5869141,0.8237305-0.8808594,1.8999023-0.8808594,3.2285156
		c0,1.5649414,0.375,2.7602539,1.125,3.5834961c0.6611328,0.7177734,1.5410156,1.0761719,2.6416016,1.0761719
		c1.2314453,0,2.1728516-0.46875,2.8251953-1.40625c0.5703125-0.8154297,0.8564453-1.9082031,0.8564453-3.277832
		c0-1.5244141-0.3759766-2.7026367-1.1259766-3.5341797C88.498909,7.4884281,87.6356277,7.1295414,86.5594559,7.1295414z"/>
	<path class="st0" d="M102.1219559,4.8673344v2.824707c-0.4404297-0.0488281-0.7871094-0.0732422-1.0390625-0.0732422
		c-1.0439453,0-1.9042969,0.3261719-2.5810547,0.9785156c-0.4638672,0.4643555-0.7822266,1.0087891-0.953125,1.6323242
		c-0.171875,0.6235352-0.2568359,1.5756836-0.2568359,2.8554688v5.3076172h-2.9228516V5.1485844h2.7392578v2.6416016
		c0.5380859-1.0761719,1.2021484-1.8466797,1.9931641-2.3115234c0.6933594-0.4160156,1.5244141-0.6235352,2.4951172-0.6235352
		C101.7264481,4.8551273,101.9022293,4.8590336,102.1219559,4.8673344z"/>
	<path class="st0" d="M114.6170731,5.1485844l-5.0751953,4.8549805l5.5527344,8.3891602h-3.5712891l-4.0234375-6.4082031
		l-1.7607422,1.6513672v4.7568359h-2.9228516V0.1344242h2.9228516v8.4257812c0,0.2446289-0.0039062,0.9091797-0.0126953,1.9936523
		c0.4082031-0.4892578,0.7099609-0.831543,0.9052734-1.0273438l4.390625-4.3779297H114.6170731z"/>
	<path class="st0" d="M125.7537918,9.0128422h-2.8007812c-0.0976562-0.7255859-0.3730469-1.253418-0.8251953-1.5834961
		c-0.4521484-0.3305664-1.1230469-0.4956055-2.0117188-0.4956055c-0.7988281,0-1.4111328,0.1552734-1.8349609,0.4648438
		c-0.3662109,0.269043-0.5498047,0.6318359-0.5498047,1.0883789c0,0.5219727,0.2363281,0.9008789,0.7089844,1.137207
		c0.4238281,0.2124023,1.3125,0.4648438,2.6660156,0.7583008c1.7861328,0.375,3.0576172,0.831543,3.8154297,1.3696289
		c0.8730469,0.6118164,1.3085938,1.5048828,1.3085938,2.6787109c0,1.4179688-0.5869141,2.5185547-1.7607422,3.3017578
		c-1.0195312,0.6845703-2.3564453,1.0273438-4.0107422,1.0273438c-3.7919922,0-5.7724609-1.5332031-5.9443359-4.5986328h2.8007812
		c0.1875,1.6308594,1.2470703,2.4462891,3.1796875,2.4462891c0.9208984,0,1.6425781-0.1962891,2.1650391-0.5869141
		c0.4560547-0.3427734,0.6845703-0.7832031,0.6845703-1.3212891c0-0.5292969-0.2402344-0.9296875-0.7216797-1.1982422
		c-0.4238281-0.2363281-1.2314453-0.4931641-2.4208984-0.7705078c-1.296875-0.3017578-2.1572266-0.5175781-2.5810547-0.6479492
		s-0.8310547-0.3061523-1.2226562-0.5258789c-0.4970703-0.2773438-0.8847656-0.6645508-1.1621094-1.1621094
		c-0.2773438-0.4970703-0.4150391-1.0473633-0.4150391-1.6508789c0-1.3208008,0.5419922-2.3359375,1.6259766-3.0449219
		c0.9453125-0.6118164,2.2050781-0.9174805,3.7792969-0.9174805c2.1113281,0,3.6435547,0.5463867,4.5976562,1.6386719
		C125.3455887,7.0318851,125.6561356,7.896143,125.7537918,9.0128422z"/>
</g>
</svg>
